<?xml version="1.0" encoding="utf-8"?>
<!-- Uploaded to: SVG Repo, www.svgrepo.com, Generator: SVG Repo Mixer Tools -->
<svg width="800px" height="800px" viewBox="0 -95 1214 1214" class="icon"  version="1.1" xmlns="http://www.w3.org/2000/svg"><path d="M569.17478 328.612881c-17.668339-10.200949-44.439864-11.311729-59.743458-2.47322L10.331119 614.295864c-15.303593 8.834169-13.381424 24.289627 4.286915 34.490577l629.16122 363.246644c17.672678 10.205288 44.444203 11.311729 59.747797 2.477559l499.100203-288.156203c15.303593-8.834169 13.381424-24.289627-4.291254-34.494916L569.17478 328.612881z" fill="#4367AE" /><path d="M1212.958373 391.202712L675.79661 701.331525v263.350238c0 36.334644 22.128814 53.061424 49.381966 37.328271l475.43539-274.492746c6.812203-3.931119 12.344407-14.500881 12.344407-23.586712V391.202712z" fill="#4367AE" /><path d="M677.579932 699.352949L0.030373 308.167593v315.587254c0 9.168271 5.584271 19.833492 12.45722 23.803661l615.263458 355.219526c27.500475 15.880678 49.828881-0.997966 49.828881-37.666712v-265.758373z" fill="#4367AE" /><path d="M569.17478 8.439322c-17.668339-10.200949-44.439864-11.311729-59.743458-2.47322L10.331119 294.122305c-15.303593 8.834169-13.381424 24.289627 4.286915 34.490576l629.16122 363.246644c17.672678 10.205288 44.444203 11.311729 59.747797 2.47756l499.100203-288.156204c15.303593-8.834169 13.381424-24.289627-4.291254-34.494915L569.17478 8.439322z" fill="#6D8ACA" /><path d="M207.203797 547.111051c0-2.794305-1.700881-6.044203-3.796611-7.25478l-78.370711-45.246915c-2.095729-1.210576-3.79661 0.078102-3.796611 2.868068v91.09261c0 2.794305 1.700881 6.044203 3.796611 7.25478l78.370711 45.246915c2.095729 1.210576 3.79661-0.078102 3.796611-2.868068v-91.09261z" fill="#051D4F" /><path d="M172.635119 621.472542c0-0.72461-0.442576-1.566373-0.98495-1.878779l-29.457355-17.008814c-0.542373-0.312407-0.984949 0.021695-0.98495 0.746305v23.617085c0 0.72461 0.442576 1.566373 0.98495 1.883119l29.457355 17.004474c0.542373 0.316746 0.984949-0.017356 0.98495-0.741966v-23.621424z" fill="#051D4F" /><path d="M345.842983 627.152271c0-2.794305-1.700881-6.044203-3.79661-7.25044L263.675661 574.654915c-2.095729-1.210576-3.79661 0.073763-3.79661 2.868068v91.09261c0 2.794305 1.700881 6.039864 3.79661 7.250441l78.370712 45.246915c2.095729 1.210576 3.79661-0.073763 3.79661-2.868068v-91.09261z" fill="#051D4F" /><path d="M311.274305 701.518102c0-0.72461-0.442576-1.566373-0.984949-1.883119l-29.457356-17.004475c-0.542373-0.312407-0.984949 0.017356-0.984949 0.741967v23.621423c0 0.72461 0.442576 1.566373 0.984949 1.87878l29.457356 17.008814c0.542373 0.312407 0.984949-0.021695 0.984949-0.746306v-23.617084z" fill="#051D4F" /><path d="M484.482169 707.197831c0-2.794305-1.700881-6.044203-3.79661-7.25478l-78.370712-45.246915c-2.095729-1.210576-3.79661 0.078102-3.79661 2.868067v91.092611c0 2.794305 1.700881 6.044203 3.79661 7.254779l78.370712 45.246915c2.095729 1.210576 3.79661-0.078102 3.79661-2.868067v-91.09261z" fill="#051D4F" /><path d="M449.913492 781.559322c0-0.72461-0.442576-1.566373-0.98495-1.87878l-29.457356-17.008813c-0.542373-0.312407-0.984949 0.021695-0.984949 0.746305v23.617085c0 0.72461 0.442576 1.566373 0.984949 1.883118l29.457356 17.004475c0.542373 0.316746 0.984949-0.017356 0.98495-0.741966v-23.621424z" fill="#051D4F" /><path d="M623.121356 787.239051c0-2.794305-1.700881-6.044203-3.79661-7.250441l-78.370712-45.246915c-2.095729-1.210576-3.79661 0.073763-3.79661 2.868068v91.09261c0 2.794305 1.700881 6.039864 3.79661 7.250441l78.370712 45.246915c2.095729 1.210576 3.79661-0.073763 3.79661-2.868068v-91.09261z" fill="#051D4F" /><path d="M588.552678 861.604881c0-0.72461-0.442576-1.566373-0.984949-1.883118l-29.457356-17.004475c-0.542373-0.312407-0.984949 0.017356-0.984949 0.741966v23.621424c0 0.72461 0.442576 1.566373 0.984949 1.87878l29.457356 17.008813c0.542373 0.312407 0.984949-0.021695 0.984949-0.746305v-23.617085z" fill="#051D4F" /><path d="M77.290305 434.523119l-27.218441-15.711458v31.422915l27.218441 15.715797v-31.427254zM77.290305 480.516339l-27.218441-15.711458v31.422916l27.218441 15.715796v-31.427254zM77.290305 529.650983l-27.218441-15.711458v31.422916l27.218441 15.715796v-31.427254zM77.290305 578.785627l-27.218441-15.711458v31.427255l27.218441 15.711457v-31.427254z" fill="#F5C335" /><path d="M169.12922 202.439593l-47.889356 27.648 138.639187 80.041221 47.889356-27.648-138.639187-80.041221zM723.685966 519.46739l-47.889356 27.648 138.639187 80.045559 47.889356-27.648-138.639187-80.045559zM283.825898 136.218034l-47.889356 27.648 138.639187 80.04122 47.889356-27.643661-138.639187-80.045559zM838.382644 456.391593l-47.889356 27.648 138.639187 80.041221 47.889356-27.643661-138.639187-80.04556zM418.486237 58.472136l-47.885017 27.643661 138.639187 80.045559 47.885017-27.648-138.639187-80.04122zM973.042983 378.645695l-47.885017 27.643661 138.639187 80.045559 47.885016-27.648-138.639186-80.04122z" fill="#4E6FBB" /></svg>